HIERARCHY
ROOT hips
{
	OFFSET -0.003675 0.299928 -0.021708
	CHANNELS 6 Xposition Yposition Zposition Xrotation Yrotation Zrotation
	JOINT LowerBack
	{
		OFFSET 0.000919 0.177588 0.009275
		CHANNELS 3 Xrotation Yrotation Zrotation
		JOINT spine
		{
			OFFSET 0.000919 0.177588 0.009275
			CHANNELS 3 Xrotation Yrotation Zrotation
			JOINT chest
			{
				OFFSET 0.000456 0.100015 0.004638
				CHANNELS 3 Xrotation Yrotation Zrotation
				JOINT neck
				{
					OFFSET 0.000456 0.100015 0.004638
					CHANNELS 3 Xrotation Yrotation Zrotation
					JOINT head
					{
						OFFSET 0.000924 0.155147 0.009274
						CHANNELS 6 Xposition Yposition Zposition Xrotation Yrotation Zrotation
						End Site
						{
							OFFSET 0.000000 0.153400 0.000000
						}
					}
				}
				JOINT shoulder.L
				{
					OFFSET 0.019937 0.078966 0.057518
					CHANNELS 6 Xposition Yposition Zposition Yrotation Xrotation Zrotation
					JOINT upper_arm.L
					{
						OFFSET 0.177024 -0.020465 -0.095062
						CHANNELS 6 Xposition Yposition Zposition Xrotation Yrotation Zrotation
						JOINT forearm.L
						{
							OFFSET 0.247100 -0.135500 -0.061800
							CHANNELS 3 Xrotation Yrotation Zrotation
							JOINT hand.L
							{
								OFFSET 0.217000 -0.143000 0.039300
								CHANNELS 3 Xrotation Yrotation Zrotation
								JOINT palm.01.L
								{
									OFFSET 0.021770 -0.038291 0.012954
									CHANNELS 6 Xposition Yposition Zposition Yrotation Xrotation Zrotation
									JOINT f_index.01.L
									{
										OFFSET 0.053215 -0.044137 0.008236
										CHANNELS 3 Xrotation Yrotation Zrotation
										JOINT f_index.02.L
										{
											OFFSET 0.036108 -0.024723 -0.010656
											CHANNELS 3 Xrotation Yrotation Zrotation
											JOINT f_index.03.L
											{
												OFFSET 0.021342 -0.014948 -0.010846
												CHANNELS 3 Xrotation Yrotation Zrotation
												End Site
												{
													OFFSET 0.015600 -0.009860 -0.013421
												}
											}
										}
									}
									JOINT thumb.01.L
									{
										OFFSET -0.009090 -0.002348 -0.024223
										CHANNELS 6 Xposition Yposition Zposition Xrotation Yrotation Zrotation
										JOINT thumb.02.L
										{
											OFFSET 0.019713 -0.035076 -0.011120
											CHANNELS 3 Xrotation Yrotation Zrotation
											JOINT thumb.03.L
											{
												OFFSET 0.024877 -0.021748 -0.005176
												CHANNELS 3 Xrotation Yrotation Zrotation
												End Site
												{
													OFFSET 0.016125 -0.013029 -0.001569
												}
											}
										}
									}
								}
								JOINT palm.02.L
								{
									OFFSET 0.032823 -0.025104 0.012281
									CHANNELS 6 Xposition Yposition Zposition Yrotation Xrotation Zrotation
									JOINT f_middle.01.L
									{
										OFFSET 0.055723 -0.038469 0.008037
										CHANNELS 3 Xrotation Yrotation Zrotation
										JOINT f_middle.02.L
										{
											OFFSET 0.038167 -0.027473 -0.015582
											CHANNELS 3 Xrotation Yrotation Zrotation
											JOINT f_middle.03.L
											{
												OFFSET 0.021707 -0.016587 -0.017037
												CHANNELS 3 Xrotation Yrotation Zrotation
												End Site
												{
													OFFSET 0.014112 -0.010584 -0.014294
												}
											}
										}
									}
								}
								JOINT palm.03.L
								{
									OFFSET 0.039230 -0.011402 0.008390
									CHANNELS 6 Xposition Yposition Zposition Yrotation Xrotation Zrotation
									JOINT f_ring.01.L
									{
										OFFSET 0.061796 -0.031470 0.007910
										CHANNELS 3 Xrotation Yrotation Zrotation
										JOINT f_ring.02.L
										{
											OFFSET 0.033092 -0.023401 -0.019127
											CHANNELS 3 Xrotation Yrotation Zrotation
											JOINT f_ring.03.L
											{
												OFFSET 0.021392 -0.015362 -0.017824
												CHANNELS 3 Xrotation Yrotation Zrotation
												End Site
												{
													OFFSET 0.008670 -0.007297 -0.014686
												}
											}
										}
									}
								}
								JOINT palm.04.L
								{
									OFFSET 0.043417 0.002450 0.002889
									CHANNELS 6 Xposition Yposition Zposition Yrotation Xrotation Zrotation
									JOINT f_pinky.01.L
									{
										OFFSET 0.069986 -0.026156 0.003627
										CHANNELS 3 Xrotation Yrotation Zrotation
										JOINT f_pinky.02.L
										{
											OFFSET 0.018520 -0.012813 -0.016429
											CHANNELS 3 Xrotation Yrotation Zrotation
											JOINT f_pinky.03.L
											{
												OFFSET 0.013822 -0.009796 -0.014947
												CHANNELS 3 Xrotation Yrotation Zrotation
												End Site
												{
													OFFSET 0.007238 -0.006103 -0.011657
												}
											}
										}
									}
								}
							}
						}
					}
				}
				JOINT shoulder.R
				{
					OFFSET -0.016662 0.078957 0.057696
					CHANNELS 6 Xposition Yposition Zposition Yrotation Xrotation Zrotation
					JOINT upper_arm.R
					{
						OFFSET -0.176972 -0.020537 -0.095144
						CHANNELS 6 Xposition Yposition Zposition Xrotation Yrotation Zrotation
						JOINT forearm.R
						{
							OFFSET -0.247100 -0.135500 -0.061800
							CHANNELS 3 Xrotation Yrotation Zrotation
							JOINT hand.R
							{
								OFFSET -0.217000 -0.143000 0.039300
								CHANNELS 3 Xrotation Yrotation Zrotation
								JOINT palm.01.R
								{
									OFFSET -0.021773 -0.038278 0.012988
									CHANNELS 6 Xposition Yposition Zposition Yrotation Xrotation Zrotation
									JOINT f_index.01.R
									{
										OFFSET -0.053212 -0.044139 0.008249
										CHANNELS 3 Xrotation Yrotation Zrotation
										JOINT f_index.02.R
										{
											OFFSET -0.036049 -0.024835 -0.010634
											CHANNELS 3 Xrotation Yrotation Zrotation
											JOINT f_index.03.R
											{
												OFFSET -0.021371 -0.014881 -0.010866
												CHANNELS 3 Xrotation Yrotation Zrotation
												End Site
												{
													OFFSET -0.015584 -0.009883 -0.013422
												}
											}
										}
									}
									JOINT thumb.01.R
									{
										OFFSET 0.009113 -0.002381 -0.024211
										CHANNELS 6 Xposition Yposition Zposition Xrotation Yrotation Zrotation
										JOINT thumb.02.R
										{
											OFFSET -0.019694 -0.035097 -0.011088
											CHANNELS 3 Xrotation Yrotation Zrotation
											JOINT thumb.03.R
											{
												OFFSET -0.024867 -0.021762 -0.005168
												CHANNELS 3 Xrotation Yrotation Zrotation
												End Site
												{
													OFFSET -0.016120 -0.013036 -0.001565
												}
											}
										}
									}
								}
								JOINT palm.02.R
								{
									OFFSET -0.032828 -0.025095 0.012286
									CHANNELS 6 Xposition Yposition Zposition Yrotation Xrotation Zrotation
									JOINT f_middle.01.R
									{
										OFFSET -0.055721 -0.038472 0.008040
										CHANNELS 3 Xrotation Yrotation Zrotation
										JOINT f_middle.02.R
										{
											OFFSET -0.038101 -0.027593 -0.015557
											CHANNELS 3 Xrotation Yrotation Zrotation
											JOINT f_middle.03.R
											{
												OFFSET -0.021730 -0.016530 -0.017054
												CHANNELS 3 Xrotation Yrotation Zrotation
												End Site
												{
													OFFSET -0.014096 -0.010608 -0.014293
												}
											}
										}
									}
								}
								JOINT palm.03.R
								{
									OFFSET -0.039192 -0.011488 0.008390
									CHANNELS 6 Xposition Yposition Zposition Yrotation Xrotation Zrotation
									JOINT f_ring.01.R
									{
										OFFSET -0.061839 -0.031387 0.007876
										CHANNELS 3 Xrotation Yrotation Zrotation
										JOINT f_ring.02.R
										{
											OFFSET -0.033068 -0.023437 -0.019125
											CHANNELS 3 Xrotation Yrotation Zrotation
											JOINT f_ring.03.R
											{
												OFFSET -0.021371 -0.015393 -0.017822
												CHANNELS 3 Xrotation Yrotation Zrotation
												End Site
												{
													OFFSET -0.008654 -0.007321 -0.014684
												}
											}
										}
									}
								}
								JOINT palm.04.R
								{
									OFFSET -0.043421 0.002443 0.002845
									CHANNELS 6 Xposition Yposition Zposition Yrotation Xrotation Zrotation
									JOINT f_pinky.01.R
									{
										OFFSET -0.069983 -0.026169 0.003599
										CHANNELS 3 Xrotation Yrotation Zrotation
										JOINT f_pinky.02.R
										{
											OFFSET -0.018501 -0.012842 -0.016428
											CHANNELS 3 Xrotation Yrotation Zrotation
											JOINT f_pinky.03.R
											{
												OFFSET -0.013806 -0.009821 -0.014946
												CHANNELS 3 Xrotation Yrotation Zrotation
												End Site
												{
													OFFSET -0.007226 -0.006121 -0.011655
												}
											}
										}
									}
								}
							}
						}
					}
				}
			}
		}
	}
	JOINT pelvis.L
	{
		OFFSET 0.000000 0.000000 0.000000
		CHANNELS 6 Xposition Yposition Zposition Xrotation Yrotation Zrotation
		JOINT thigh.L
		{
			OFFSET 0.101675 0.001054 -0.000000
			CHANNELS 3 Xrotation Yrotation Zrotation
			JOINT shin.L
			{
				OFFSET 0.000000 -0.534800 0.041000
				CHANNELS 3 Xrotation Yrotation Zrotation
				JOINT foot.L
				{
					OFFSET 0.000000 -0.452000 -0.044800
					CHANNELS 3 Xrotation Yrotation Zrotation
					JOINT toe.L
					{
						OFFSET -0.000000 -0.068500 0.109600
						CHANNELS 3 Xrotation Yrotation Zrotation
						End Site
						{
							OFFSET -0.000000 0.000000 0.067200
						}
					}
				}
				JOINT heel.L
				{
					OFFSET 0.000000 -0.452000 -0.044800
					CHANNELS 3 Xrotation Yrotation Zrotation
					JOINT heel.02.L
					{
						OFFSET -0.038000 -0.085200 0.016200
						CHANNELS 6 Xposition Yposition Zposition Xrotation Yrotation Zrotation
						End Site
						{
							OFFSET 0.080000 -0.000000 0.000000
						}
					}
				}
			}
		}
	}
	JOINT pelvis.R
	{
		OFFSET 0.000000 0.000000 0.000000
		CHANNELS 6 Xposition Yposition Zposition Xrotation Yrotation Zrotation
		JOINT thigh.R
		{
			OFFSET -0.094325 0.001054 0.000000
			CHANNELS 3 Xrotation Yrotation Zrotation
			JOINT shin.R
			{
				OFFSET 0.000000 -0.534800 0.041000
				CHANNELS 3 Xrotation Yrotation Zrotation
				JOINT foot.R
				{
					OFFSET 0.000000 -0.452000 -0.044800
					CHANNELS 3 Xrotation Yrotation Zrotation
					JOINT toe.R
					{
						OFFSET -0.000000 -0.068500 0.109600
						CHANNELS 3 Xrotation Yrotation Zrotation
						End Site
						{
							OFFSET -0.000000 0.000000 0.067200
						}
					}
				}
				JOINT heel.R
				{
					OFFSET 0.000000 -0.452000 -0.044800
					CHANNELS 3 Xrotation Yrotation Zrotation
					JOINT heel.02.R
					{
						OFFSET 0.038000 -0.085200 0.016200
						CHANNELS 6 Xposition Yposition Zposition Xrotation Yrotation Zrotation
						End Site
						{
							OFFSET -0.080000 0.000000 -0.000000
						}
					}
				}
			}
		}
	}
}
MOTION
Frames: 4
Frame Time: 0.041667
0.000064 0.202148 0.005290 34.147763 5.051352 77.797596 -0.000000 0.000003 0.000000 -0.000002 0.000004 -0.000000 0.000000 -0.000001 -0.000000 -0.000000 0.000001 -0.000001 0.000924 0.155148 0.009274 6.577036 -0.048528 -29.359247 0.019937 0.078966 0.057518 12.226349 5.024191 41.197502 0.177024 -0.020465 -0.095062 -3.705269 -0.642856 10.002032 14.113935 -10.701623 74.813685 -0.000003 0.000000 -0.000002 0.021770 -0.038291 0.012954 -0.000001 -0.000003 0.000001 -0.000002 -0.000003 0.000001 0.000002 -0.000000 0.000007 0.000001 0.000003 -0.000002 -0.009090 -0.002348 -0.024223 -0.000001 -0.000003 0.000002 -0.000001 0.000001 0.000001 -0.000001 0.000004 -0.000001 0.032823 -0.025104 0.012281 -0.000004 -0.000002 0.000004 0.000002 -0.000001 -0.000000 -0.000002 0.000001 0.000003 -0.000002 0.000002 0.000004 0.039230 -0.011402 0.008390 -0.000002 -0.000002 0.000008 -0.000000 -0.000000 -0.000004 -0.000005 0.000005 0.000001 0.000002 -0.000002 0.000003 0.043417 0.002449 0.002889 -0.000001 -0.000003 -0.000002 -0.000001 -0.000005 -0.000000 -0.000001 -0.000000 -0.000001 0.000003 -0.000002 -0.000002 -0.016662 0.078957 0.057696 0.021922 2.073495 -35.380875 -0.176972 -0.020537 -0.095144 -15.826043 -4.175777 21.205823 31.551963 2.855716 -104.402372 -0.000003 0.000002 -0.000000 -0.021773 -0.038278 0.012988 0.000001 -0.000001 -0.000003 0.000002 0.000002 0.000002 -0.000000 -0.000000 -0.000003 -0.000003 0.000003 -0.000000 0.009113 -0.002381 -0.024211 0.000002 -0.000000 0.000001 0.000000 0.000001 0.000004 0.000007 0.000004 -0.000006 -0.032828 -0.025095 0.012286 0.000001 0.000001 -0.000003 -0.000000 -0.000001 -0.000001 0.000001 -0.000003 0.000001 -0.000000 -0.000002 -0.000000 -0.039192 -0.011488 0.008390 0.000000 0.000000 0.000001 -0.000001 0.000000 -0.000003 0.000001 0.000001 -0.000002 0.000002 0.000004 -0.000000 -0.043421 0.002443 0.002845 -0.000001 0.000000 -0.000001 -0.000003 0.000002 -0.000002 -0.000000 -0.000006 -0.000001 -0.000003 -0.000000 0.000001 0.000000 0.000000 -0.000000 -2.190180 1.344717 -15.454097 63.697367 -0.825619 -13.855859 -20.659844 0.012830 -0.127418 0.000000 -0.000003 0.000001 0.000001 0.000001 0.000002 -0.000005 -0.000005 0.000000 -0.038000 -0.085200 0.016200 0.000004 -0.000001 -0.000000 0.000000 0.000000 -0.000000 -2.093136 1.318974 -14.222167 55.165362 -0.480318 -3.024900 -17.213129 0.893202 -9.049807 0.000003 -0.000002 -0.000001 0.000003 0.000001 0.000003 0.000002 -0.000001 0.000001 0.038000 -0.085200 0.016200 0.000001 -0.000003 0.000002 
-0.000471 0.202746 0.005347 33.713220 5.298762 78.337837 0.000000 0.000000 0.000001 -0.000000 -0.000002 0.000002 0.000000 -0.000002 0.000001 0.000001 -0.000004 0.000001 0.000924 0.155148 0.009274 5.431874 -0.046847 -29.654472 0.019937 0.078966 0.057518 10.353535 4.521213 40.805640 0.177025 -0.020465 -0.095062 -2.790242 -1.072199 12.874018 10.072856 -5.819602 72.596441 0.000003 0.000000 -0.000004 0.021770 -0.038291 0.012954 -0.000001 -0.000003 -0.000000 -0.000004 -0.000000 0.000001 0.000002 -0.000000 0.000005 -0.000000 0.000001 -0.000000 -0.009090 -0.002348 -0.024224 -0.000003 -0.000003 -0.000004 -0.000002 0.000001 0.000001 -0.000000 -0.000001 -0.000002 0.032823 -0.025104 0.012281 -0.000002 -0.000000 0.000002 -0.000001 0.000000 -0.000005 -0.000004 -0.000002 0.000003 -0.000002 0.000000 -0.000003 0.039230 -0.011402 0.008390 0.000001 -0.000006 0.000001 0.000004 0.000003 -0.000004 0.000002 0.000006 0.000001 0.000002 -0.000004 0.000003 0.043417 0.002450 0.002889 -0.000001 -0.000002 -0.000003 -0.000004 -0.000002 0.000005 0.000000 -0.000003 -0.000001 -0.000000 -0.000000 0.000001 -0.016662 0.078957 0.057696 -0.041510 1.991873 -35.479851 -0.176972 -0.020537 -0.095144 -12.758512 -4.676478 16.611616 33.589808 -0.284941 -108.507985 0.000000 0.000003 0.000003 -0.021773 -0.038278 0.012988 -0.000004 -0.000004 0.000002 -0.000003 -0.000003 0.000000 -0.000003 0.000003 -0.000007 -0.000000 0.000003 0.000004 0.009113 -0.002381 -0.024211 -0.000001 -0.000000 -0.000001 -0.000004 -0.000001 -0.000001 0.000003 0.000002 -0.000001 -0.032828 -0.025095 0.012286 0.000001 -0.000001 0.000001 0.000001 -0.000001 0.000002 -0.000004 -0.000003 -0.000003 0.000000 0.000003 -0.000002 -0.039192 -0.011488 0.008390 -0.000003 -0.000002 0.000007 -0.000002 0.000004 -0.000005 0.000000 -0.000008 -0.000002 0.000000 0.000008 -0.000000 -0.043421 0.002443 0.002845 -0.000001 -0.000000 0.000004 -0.000004 0.000005 -0.000002 0.000001 -0.000003 0.000002 0.000001 0.000002 -0.000003 -0.000000 0.000000 -0.000000 -2.212848 1.349974 -15.445791 63.904097 -0.763084 -13.042669 -21.912138 -0.012068 0.123740 -0.000002 0.000003 0.000002 -0.000000 -0.000002 0.000000 0.000000 -0.000001 0.000001 -0.038000 -0.085200 0.016200 0.000001 0.000002 0.000002 -0.000000 0.000000 -0.000000 -2.114881 1.323994 -14.213891 55.272367 -0.456938 -2.697952 -19.006484 0.800066 -8.099206 0.000002 0.000001 0.000000 -0.000001 -0.000001 0.000002 0.000007 0.000002 0.000002 0.038000 -0.085200 0.016200 -0.000003 -0.000005 -0.000003 
-0.000608 0.204103 0.006178 28.938385 5.178000 80.552915 -0.000000 0.000001 0.000001 -0.000000 0.000000 -0.000001 0.000000 -0.000001 -0.000002 0.000001 0.000001 -0.000002 0.000924 0.155148 0.009274 2.346264 -0.030697 -26.234663 0.019937 0.078966 0.057518 8.717335 4.425397 42.472012 0.177024 -0.020465 -0.095062 0.135602 2.703772 18.625316 9.628696 -13.386636 61.839365 -0.000005 -0.000001 -0.000004 0.021770 -0.038291 0.012954 -0.000001 -0.000002 -0.000004 -0.000003 0.000001 -0.000000 -0.000002 0.000001 0.000007 -0.000002 0.000001 0.000000 -0.009090 -0.002348 -0.024223 -0.000000 -0.000002 0.000004 0.000003 -0.000001 0.000003 0.000001 0.000001 -0.000002 0.032823 -0.025104 0.012281 -0.000003 -0.000003 0.000005 -0.000000 0.000004 -0.000005 -0.000004 -0.000001 0.000005 -0.000004 0.000001 0.000003 0.039230 -0.011402 0.008390 -0.000002 -0.000001 0.000001 0.000001 0.000003 -0.000000 -0.000001 0.000001 0.000006 0.000002 -0.000003 0.000004 0.043417 0.002450 0.002889 -0.000003 -0.000003 -0.000003 -0.000004 0.000003 -0.000004 0.000003 0.000001 0.000001 0.000002 -0.000005 -0.000001 -0.016662 0.078957 0.057696 -1.475179 2.054988 -35.560861 -0.176972 -0.020537 -0.095144 -14.061413 4.446902 4.504275 14.877624 12.975356 -72.538214 -0.000002 0.000002 -0.000000 -0.021773 -0.038278 0.012988 0.000000 -0.000003 -0.000002 -0.000001 0.000003 -0.000001 -0.000002 -0.000000 -0.000006 -0.000001 -0.000002 0.000003 0.009113 -0.002381 -0.024212 0.000000 -0.000002 -0.000003 -0.000001 0.000001 0.000004 -0.000001 -0.000002 -0.000004 -0.032828 -0.025095 0.012286 0.000004 -0.000003 0.000002 0.000002 0.000002 -0.000001 0.000002 0.000001 -0.000002 -0.000001 0.000003 -0.000004 -0.039192 -0.011488 0.008390 -0.000001 -0.000003 0.000001 -0.000000 0.000003 -0.000003 0.000002 -0.000001 0.000002 0.000000 -0.000001 -0.000002 -0.043421 0.002443 0.002845 0.000000 -0.000003 0.000000 -0.000004 0.000004 0.000001 -0.000002 -0.000001 0.000000 -0.000001 0.000001 -0.000001 -0.000000 0.000000 -0.000000 -2.240274 1.374125 -15.617301 63.627693 -0.653403 -11.583400 -19.679909 -0.044973 0.455788 0.000003 -0.000002 -0.000000 -0.000002 -0.000001 -0.000000 0.000003 -0.000003 0.000001 -0.038000 -0.085200 0.016200 0.000002 -0.000003 -0.000001 -0.000000 0.000000 -0.000000 -2.140485 1.347346 -14.385490 57.924403 -0.379545 -1.553017 -21.975497 0.796510 -8.063020 0.000002 -0.000002 -0.000002 -0.000001 -0.000003 -0.000001 0.000007 0.000000 -0.000001 0.038000 -0.085200 0.016200 -0.000002 0.000002 0.000002 
-0.000170 0.204810 0.006711 26.133158 5.503742 81.194222 -0.000001 0.000001 -0.000000 0.000000 0.000001 -0.000001 -0.000001 -0.000002 -0.000000 -0.000000 0.000001 0.000000 0.000924 0.155147 0.009274 -0.265542 -0.029374 -28.495662 0.019937 0.078966 0.057518 7.223020 4.267190 42.180335 0.177024 -0.020465 -0.095062 -1.309960 1.987415 14.747077 12.518649 -15.316827 66.490826 -0.000003 0.000000 -0.000001 0.021770 -0.038291 0.012954 -0.000001 0.000002 -0.000004 -0.000001 -0.000003 0.000001 0.000000 -0.000002 0.000006 -0.000000 0.000002 0.000004 -0.009090 -0.002348 -0.024223 -0.000000 -0.000002 0.000004 0.000000 -0.000000 0.000001 0.000001 0.000001 0.000001 0.032823 -0.025104 0.012281 -0.000002 0.000005 0.000002 -0.000001 0.000003 -0.000002 -0.000002 -0.000004 -0.000002 -0.000002 0.000000 -0.000001 0.039230 -0.011402 0.008390 0.000001 0.000002 0.000004 0.000001 -0.000000 0.000001 0.000002 0.000008 -0.000002 -0.000001 0.000001 0.000001 0.043417 0.002450 0.002889 -0.000001 0.000002 -0.000005 -0.000004 -0.000006 -0.000000 0.000004 0.000002 -0.000001 0.000000 0.000001 0.000000 -0.016662 0.078957 0.057696 -2.699335 1.887453 -33.837078 -0.176972 -0.020537 -0.095144 -13.037035 0.503816 8.139932 23.381269 9.142087 -89.844664 0.000002 0.000002 -0.000000 -0.021773 -0.038278 0.012988 0.000001 -0.000003 -0.000002 0.000000 0.000002 -0.000006 -0.000000 0.000001 -0.000003 0.000002 -0.000002 0.000003 0.009113 -0.002381 -0.024211 0.000000 -0.000002 -0.000003 0.000001 -0.000004 -0.000003 -0.000001 -0.000001 -0.000001 -0.032828 -0.025095 0.012286 0.000003 -0.000003 -0.000001 0.000001 0.000003 0.000004 0.000002 0.000002 -0.000002 -0.000000 0.000003 -0.000002 -0.039192 -0.011488 0.008390 0.000004 -0.000003 -0.000000 0.000000 0.000002 0.000002 0.000002 -0.000006 0.000002 0.000000 -0.000003 0.000001 -0.043421 0.002443 0.002845 0.000002 -0.000003 0.000000 -0.000003 0.000004 0.000001 0.000001 -0.000001 0.000002 -0.000000 -0.000001 -0.000001 0.000000 0.000000 -0.000000 -2.218079 1.176926 -13.643708 64.104167 -0.627771 -11.248978 -18.261505 -0.069198 0.700204 -0.000002 -0.000001 -0.000001 -0.000001 0.000002 -0.000002 0.000000 0.000002 0.000002 -0.038000 -0.085200 0.016200 0.000000 -0.000001 -0.000000 0.000000 0.000000 -0.000000 -2.126667 1.155745 -12.411392 58.925825 -0.318476 -0.719362 -19.457962 0.870252 -8.815378 0.000003 -0.000002 -0.000001 0.000000 -0.000001 -0.000000 0.000007 -0.000000 -0.000001 0.038000 -0.085200 0.016200 -0.000001 0.000001 -0.000001 
